<svg xmlns="http://www.w3.org/2000/svg" viewBox="0 0 100 100" width="1024" height="1024" role="img" aria-label="Nilbyte Studio app icon">
  <title>Nilbyte Studio</title>
  <defs>
    <linearGradient id="byte" x1="32" y1="26" x2="68" y2="74" gradientUnits="userSpaceOnUse">
      <stop offset="0" stop-color="#12A5B4"/>
      <stop offset="1" stop-color="#3FD0C9"/>
    </linearGradient>
    <linearGradient id="tile" x1="0" y1="0" x2="100" y2="100" gradientUnits="userSpaceOnUse">
      <stop offset="0" stop-color="#16283A"/>
      <stop offset="1" stop-color="#0B1622"/>
    </linearGradient>
  </defs>
  <rect width="100" height="100" rx="22" fill="url(#tile)"/>
  <g fill="#FFFFFF">
    <rect x="26" y="26" width="10" height="48" rx="2"/>
    <rect x="64" y="26" width="10" height="48" rx="2"/>
  </g>
  <g fill="url(#byte)">
    <rect x="32.00" y="26.00" width="5.5" height="5.5" rx="1.2"/>
    <rect x="36.36" y="32.07" width="5.5" height="5.5" rx="1.2"/>
    <rect x="40.71" y="38.14" width="5.5" height="5.5" rx="1.2"/>
    <rect x="45.07" y="44.21" width="5.5" height="5.5" rx="1.2"/>
    <rect x="49.43" y="50.29" width="5.5" height="5.5" rx="1.2"/>
    <rect x="53.79" y="56.36" width="5.5" height="5.5" rx="1.2"/>
    <rect x="58.14" y="62.43" width="5.5" height="5.5" rx="1.2"/>
    <rect x="62.50" y="68.50" width="5.5" height="5.5" rx="1.2"/>
  </g>
</svg>
